<svg width="24" height="25" viewBox="0 0 24 25" fill="none" xmlns="http://www.w3.org/2000/svg">
<path d="M3 21.5V17.25L16.2 4.075C16.4 3.89167 16.621 3.75 16.863 3.65C17.105 3.55 17.359 3.5 17.625 3.5C17.891 3.5 18.1493 3.55 18.4 3.65C18.6507 3.75 18.8673 3.9 19.05 4.1L20.425 5.5C20.625 5.68333 20.771 5.9 20.863 6.15C20.955 6.4 21.0007 6.65 21 6.9C21 7.16667 20.9543 7.421 20.863 7.663C20.7717 7.905 20.6257 8.12567 20.425 8.325L7.25 21.5H3ZM17.6 8.3L19 6.9L17.6 5.5L16.2 6.9L17.6 8.3Z" fill="#727272"/>
</svg>
