<svg width="40" height="40" viewBox="0 0 40 40" fill="none" xmlns="http://www.w3.org/2000/svg">
<path d="M39.9701 17.1804L32.1001 9.3904L31.7601 9.3504L27.2201 13.6504C27.4101 12.6504 28.5801 11.1304 28.7301 10.2304C28.8401 9.5604 28.1301 9.3604 27.7401 10.0104C26.7601 11.6704 26.1401 13.9604 25.1401 15.6204C24.8201 16.1504 23.6501 17.0204 23.9301 17.5604L24.3601 17.8004L22.9201 21.0804C22.8501 21.1404 21.9801 21.0604 21.7401 21.1004C21.5301 21.1304 21.2201 21.3904 21.1101 21.3404C20.9201 21.2604 20.3201 20.3704 20.1101 20.1404C19.3101 19.2804 18.4401 18.4404 17.3901 17.9004L19.4801 16.9404C23.3301 14.5504 22.6301 10.1804 21.7401 6.3904C20.5301 1.2304 17.2701 -0.679603 12.0201 0.210397C6.90011 1.0704 4.68011 4.4704 1.84011 8.3604C1.43011 9.0204 2.36011 9.2904 2.77011 9.6004C3.26011 9.9704 3.74011 10.3404 4.21011 10.7404C3.21011 11.1004 2.31011 11.4604 1.90011 12.5404C1.68011 13.1304 1.52011 14.6204 1.90011 15.1304C2.00011 15.2704 2.27011 15.0704 2.20011 15.3804C1.89011 15.4304 1.63011 15.5104 1.30011 15.4704C0.830107 15.4004 0.0101074 14.5804 0.000107444 15.6004C-0.00989256 16.3604 0.680107 17.2504 1.25011 17.7004C3.08011 19.1604 5.47011 18.2004 6.64011 16.4004C6.98011 15.8704 7.16011 15.2604 7.41011 14.6904C7.72011 14.9604 8.36011 15.1904 8.77011 15.2404C9.03011 15.2704 9.51011 15.1604 9.54011 15.1804C9.56011 15.1804 9.62011 15.3804 9.69011 15.4604C9.99011 15.7804 11.1501 16.6104 10.5801 16.9204C10.1901 17.1304 9.31011 17.2004 8.81011 17.3404C5.21011 18.4104 1.30011 23.0304 2.92011 26.9104C3.33011 27.9004 4.23011 28.9204 5.26011 29.3104C5.01011 29.9804 5.28011 30.5404 5.52011 31.1504L4.31011 34.6104C4.31011 34.7404 4.38011 34.8404 4.45011 34.9404C4.67011 35.2704 6.92011 36.3204 7.30011 36.2804C7.40011 36.2804 7.50011 36.2304 7.59011 36.1804L8.50011 33.1304C9.13011 33.4304 10.0801 33.3004 10.4301 32.6204C10.5401 32.4104 10.5701 31.9904 10.6201 31.9104C10.6601 31.8504 10.9801 31.7704 11.1101 31.6804C12.8901 30.3804 11.1401 27.3204 9.36011 26.9204C10.7301 24.1104 11.2601 20.9104 9.74011 18.0404C10.1901 18.0804 10.3701 17.7704 10.7401 18.1404C10.9701 18.3804 11.3101 19.0304 11.4401 19.3504C11.7101 20.0104 11.8401 21.2704 12.1101 21.7404C12.1801 21.8604 12.3401 22.0304 12.4701 22.0504H16.6701C16.9601 21.7004 16.7601 20.9704 16.6701 20.5204C16.4901 19.6404 16.1001 18.8604 15.7601 18.0404C16.8001 17.7504 17.1901 18.8204 17.4801 19.6104C18.3001 21.8704 17.7201 24.7004 16.8201 26.8604L17.4801 29.1104C15.4501 29.0704 14.6601 31.3904 13.3301 32.6504C12.8901 33.0704 10.5901 34.5104 10.5301 34.7204C10.4401 35.0104 10.5601 35.2004 10.7701 35.4004C10.9201 35.5504 11.2201 35.7504 11.5801 35.9604C12.3101 36.4004 13.2801 36.9004 13.7301 37.1204C15.1301 37.8004 16.8401 38.4604 18.3601 38.7904C18.8001 38.8804 20.0701 39.2304 20.3501 38.9104C20.5001 38.7404 20.9301 37.2704 21.0401 36.9204C21.4701 35.6104 22.2601 33.2704 22.0401 31.9504C21.9001 31.1304 21.0701 30.7404 21.0201 30.5804C20.9801 30.4404 21.1501 30.1504 21.0901 29.8504C21.0301 29.5704 20.7301 29.4804 20.7301 29.2104C22.7601 29.4504 24.7301 28.0104 25.2201 26.0604L25.4801 27.2704L25.9401 27.5804L38.3001 27.5404L38.5801 27.3404V17.8404C39.1001 17.8404 40.1701 17.9804 39.9701 17.1704V17.1804ZM8.13011 23.3904C8.21011 23.8804 8.63011 26.0704 7.79011 26.0704C7.66011 26.0704 7.07011 25.4804 6.98011 25.3504C6.32011 24.4204 8.04011 23.3004 8.13011 23.3904ZM10.0401 28.3004C10.6501 28.9004 11.3201 30.2204 10.5601 30.9304C10.4301 30.9304 9.84011 28.9304 9.13011 28.9204C8.37011 28.9204 9.12011 29.7704 9.24011 30.0504C9.56011 30.7604 10.0101 31.5204 9.54011 32.2504L8.89011 32.2704C9.10011 31.7904 8.21011 29.9204 7.70011 30.0704C7.27011 30.5004 7.92011 31.1404 8.01011 31.5704C8.12011 32.0904 7.88011 32.9204 7.24011 32.7304C6.79011 32.5904 6.93011 31.8504 6.84011 31.5004C6.68011 30.8804 6.04011 30.6704 6.12011 29.7404C6.15011 29.4104 6.40011 29.1404 6.27011 28.8304C6.19011 28.6704 5.46011 28.3904 5.23011 28.2404C3.36011 27.0204 3.18011 24.5504 4.02011 22.6204C4.16011 22.5804 4.18011 22.6604 4.26011 22.7104C4.44011 22.8404 5.84011 24.0504 5.88011 24.1504C6.00011 24.4204 5.79011 24.7804 5.92011 25.2504C6.45011 27.1404 8.83011 27.1104 10.0301 28.3004H10.0401ZM6.59011 9.7804C6.61011 8.6604 7.03011 7.7204 7.24011 6.7004C7.33011 6.2804 7.26011 5.8304 6.75011 6.1104C5.91011 6.5804 5.64011 9.8604 5.73011 10.7804L2.98011 8.5404C4.58011 6.3004 6.09011 3.8804 8.53011 2.4604C11.6301 0.660397 16.7801 0.110397 19.2901 3.1404C18.5301 3.0204 17.8001 2.7304 17.0301 2.6804C13.2701 2.3904 10.5401 5.3904 8.70011 8.2704C8.58011 8.4504 8.15011 9.3904 8.09011 9.4304C8.03011 9.4704 7.46011 9.5204 7.25011 9.5904C7.03011 9.6704 6.57011 10.1104 6.57011 9.7804H6.59011ZM12.7401 18.9204C12.2301 18.6204 11.2201 17.8204 11.7101 17.1804C12.5801 17.7904 13.6901 17.9004 14.7301 17.9804C15.0901 19.6204 13.8501 19.5604 12.7501 18.9104L12.7401 18.9204ZM9.94011 14.1704C9.51011 14.1904 9.22011 14.3504 8.76011 14.3104C6.21011 14.0704 6.06011 9.7904 8.51011 10.4504C9.41011 10.6904 9.49011 11.9104 10.3601 10.6904C10.9001 9.9404 11.0901 8.8204 11.2201 7.9204C13.4701 7.4304 15.8701 6.1804 16.3301 3.7204C17.5901 5.0704 18.9401 6.0304 20.7701 6.4904C20.9901 7.6904 21.3701 8.9604 21.4901 10.1704C21.6201 11.4704 21.5401 12.8304 20.9401 14.0104C18.8701 18.0704 12.1201 18.1804 9.94011 14.1804V14.1704ZM20.2301 22.0704C20.9001 21.9004 21.1401 22.8704 20.9701 23.3904C20.8701 23.7104 20.1601 24.4704 19.8101 24.5304C18.3201 24.7604 19.5101 22.2504 20.2201 22.0704H20.2301ZM18.4401 24.9104L19.1001 25.4004C18.8801 25.9804 18.7701 26.6504 19.2001 27.1604C19.3501 27.3404 19.5901 27.3504 19.5901 27.5304L19.3101 28.3104C18.8401 28.3204 18.6701 28.4304 18.3501 28.7404C18.2901 28.2304 17.9401 27.6304 17.8901 27.1404C17.8201 26.4304 18.4201 25.6604 18.4401 24.9204V24.9104ZM21.1101 32.7404L16.3001 30.8404C15.9301 30.5504 16.9201 30.1204 17.3301 30.1704C17.7501 30.2204 20.4101 31.2804 20.7201 31.5604C21.1501 31.9304 21.1501 32.1904 21.1101 32.7504V32.7404ZM21.1101 28.3504C21.1201 27.9104 21.7401 27.5504 21.5401 27.1104C21.2501 26.4804 19.6901 26.8804 19.8801 26.1204C20.0101 25.5904 21.1201 25.7404 21.5301 25.8704C21.8601 25.9704 22.4401 26.5404 22.6801 26.0604C23.0701 25.2904 21.5001 24.9704 21.0101 24.8204L21.6501 23.9704C22.1301 23.9504 23.3401 24.8504 23.6401 24.2404C23.9301 23.6704 22.3801 23.1604 21.9701 23.0904L21.7701 22.0504C22.9101 21.8404 24.3601 22.8904 24.5301 24.0104C24.8601 26.1804 23.2801 28.1904 21.1001 28.3504H21.1101ZM25.3201 23.1904L24.7001 22.3304C24.5701 22.0904 23.7901 21.6004 23.7901 21.4304L25.3201 18.0404V23.2004V23.1904ZM37.6301 26.6304H26.6001C26.5201 26.6304 26.3201 26.3304 26.3601 26.2004C26.1601 23.0804 26.6401 19.6204 26.3701 16.5504C26.3601 16.3904 26.2901 16.2904 26.2001 16.1704L31.8101 10.7204H32.0001L37.6301 16.4504C37.6301 16.5404 37.5401 16.6204 37.5401 16.6404V26.4804C37.5401 26.4804 37.6601 26.5504 37.6401 26.6204L37.6301 26.6304Z" fill="#222222"/>
<path d="M19.6801 37.9504L18.3401 37.8004C18.4801 37.2304 19.7201 35.0804 19.5401 34.6504C19.0401 33.5204 18.2401 36.0004 18.0701 36.3304C17.8701 36.7204 17.5901 37.1004 17.4201 37.5104C17.3301 37.5204 16.3501 37.2004 16.1801 37.1304C16.0801 37.0904 16.0201 37.1804 16.0501 36.9804C16.5201 36.4904 17.9801 34.9704 17.8701 34.3104C17.8101 33.9604 17.5301 34.0204 17.2901 34.2104C16.9501 34.4704 16.4701 35.3904 16.1001 35.7904C15.9301 35.9804 15.3901 36.5204 15.1901 36.6004C14.8801 36.7404 14.2201 36.2104 13.8601 36.1704C13.7601 36.0304 14.5801 35.3304 14.7201 35.1604C15.0001 34.8304 16.0701 33.4904 15.8301 33.1104C15.6301 32.8004 15.3901 32.9704 15.2001 33.1604C14.6701 33.6804 13.8401 35.2504 13.1701 35.5304C12.7601 35.7004 12.2801 35.0704 11.8601 35.0204L11.9601 34.7904C13.3701 33.9904 14.5801 32.7704 15.5401 31.4904L20.9201 33.7004C21.0801 33.9404 19.8601 37.4204 19.6901 37.9404L19.6801 37.9504Z" fill="white"/>
<path d="M30.7901 5.51036C30.3601 5.76036 29.9701 6.26036 29.8001 6.72036C29.6501 7.13036 29.6801 8.02036 29.1801 8.02036C28.6901 8.02036 28.7901 7.33036 28.6801 6.98036C28.4801 6.32036 28.2601 5.88036 27.6501 5.53036C27.2901 5.32036 26.1201 5.07036 26.1601 4.63036C26.2001 4.27036 26.9201 4.26036 27.2201 4.15036C27.8101 3.92036 28.3901 3.40036 28.6401 2.80036C28.7901 2.45036 28.8601 1.43036 29.1901 1.34036C29.6701 1.22036 29.7201 2.47036 29.8701 2.83036C30.3601 3.98036 31.3101 4.10036 32.2701 4.63036C32.3801 5.10036 31.1101 5.31036 30.7801 5.51036H30.7901Z" fill="#222222"/>
<path d="M37.6301 26.6303H26.6001C26.5201 26.6303 26.3201 26.3303 26.3601 26.2103C26.1601 23.0903 26.6401 19.6303 26.3701 16.5603C26.3601 16.4003 26.2901 16.3003 26.2001 16.1803L31.8101 10.7303H32.0001L37.6301 16.4603C37.6301 16.5503 37.5401 16.6303 37.5401 16.6503V26.4903C37.5401 26.4903 37.6601 26.5603 37.6401 26.6303H37.6301ZM29.2001 17.3803C28.9801 17.4603 28.9601 17.7803 28.9401 17.9803C28.8001 19.5903 29.0601 21.4103 28.9401 23.0503C28.9401 23.3303 29.1801 23.5703 29.4701 23.5803C30.2501 23.4503 34.3701 23.7803 34.7401 23.4903C34.8901 23.3703 34.8601 23.2203 34.8801 23.0603C35.0401 21.4003 34.7501 19.4903 34.8801 17.8003C34.8801 17.5303 34.7201 17.3703 34.4501 17.3703L29.2101 17.3903L29.2001 17.3803Z" fill="white"/>
<path d="M16.3401 3.71045C17.6001 5.06045 18.9501 6.02045 20.7801 6.48045C21.0001 7.68045 21.3801 8.95045 21.5001 10.1604C21.6301 11.4604 21.5501 12.8204 20.9501 14.0004C18.8801 18.0604 12.1301 18.1704 9.95011 14.1704C9.52011 14.1904 9.23011 14.3504 8.77011 14.3104C6.22011 14.0704 6.06011 9.79045 8.52011 10.4504C9.41011 10.6904 9.50011 11.9104 10.3701 10.6904C10.9101 9.94045 11.1001 8.82045 11.2301 7.92045C13.4801 7.43045 15.8801 6.18045 16.3501 3.72045L16.3401 3.71045ZM18.8901 7.65045C17.8801 7.86045 18.1201 10.4604 19.0601 10.4904C20.3101 10.5204 20.1001 7.40045 18.8901 7.65045ZM14.7801 8.33045C13.3501 6.91045 12.7901 11.3504 14.4701 11.0704C15.3701 10.9204 15.3401 8.89045 14.7801 8.33045ZM17.1301 12.1404C16.8301 12.8204 17.4201 12.9504 18.0101 12.8704C18.8201 12.7604 19.4701 11.9304 19.0901 11.1304C18.7101 10.3304 16.9001 10.0504 16.9101 10.8204C16.9101 11.6504 18.2901 10.8904 18.3601 11.5904C18.4201 12.2104 17.3501 11.8904 17.1401 12.1304L17.1301 12.1404ZM7.80011 11.3604C7.26011 11.5404 8.39011 13.1404 8.79011 12.9304C9.41011 12.6104 8.36011 11.1804 7.80011 11.3604ZM14.6901 12.9104C14.0601 12.3804 13.4701 13.2404 14.3801 14.1204C15.2901 15.0004 16.7001 15.2604 17.8601 14.8304C18.5101 14.5904 18.6801 13.8904 18.0801 13.7404C18.0101 13.7204 17.0901 14.1004 16.7601 14.1104C16.1401 14.1304 15.4501 13.8004 15.0101 13.3804C14.8601 13.2304 14.7901 12.9804 14.6901 12.8904V12.9104Z" fill="white"/>
<path d="M19.3001 3.14037C18.5401 3.02037 17.8101 2.74037 17.0401 2.68037C13.2801 2.39037 10.5501 5.39037 8.71011 8.27037C8.59011 8.45037 8.16011 9.39037 8.10011 9.43037C8.04011 9.47037 7.47011 9.52037 7.26011 9.59037C7.05011 9.66037 6.58011 10.1104 6.59011 9.78037C6.61011 8.66037 7.03011 7.72037 7.24011 6.70037C7.33011 6.28037 7.26011 5.83037 6.75011 6.11037C5.91011 6.57037 5.64011 9.86037 5.73011 10.7804L2.98011 8.54037C4.58011 6.30037 6.09011 3.88037 8.53011 2.46037C11.6301 0.650366 16.7801 0.110366 19.2901 3.14037H19.3001Z" fill="white"/>
<path d="M9.54011 32.2505L8.89011 32.2705C9.10011 31.7905 8.21011 29.9205 7.70011 30.0705C7.28011 30.4905 7.92011 31.1405 8.01011 31.5705C8.12011 32.0905 7.88011 32.9205 7.24011 32.7305C6.79011 32.5905 6.93011 31.8505 6.84011 31.5005C6.68011 30.8805 6.04011 30.6705 6.12011 29.7405C6.15011 29.4105 6.40011 29.1405 6.27011 28.8305C6.19011 28.6705 5.46011 28.3905 5.23011 28.2405C3.36011 27.0205 3.18011 24.5505 4.02011 22.6205C4.16011 22.5805 4.18011 22.6605 4.26011 22.7105C4.44011 22.8305 5.84011 24.0505 5.88011 24.1505C6.00011 24.4205 5.79011 24.7805 5.92011 25.2505C6.46011 27.1405 8.83011 27.1105 10.0301 28.3005C10.6401 28.9005 11.3101 30.2205 10.5501 30.9305C10.4201 30.9305 9.83011 28.9305 9.12011 28.9205C8.37011 28.9205 9.11011 29.7705 9.23011 30.0605C9.55011 30.7705 9.99011 31.5305 9.53011 32.2605L9.54011 32.2505Z" fill="white"/>
<path d="M21.1101 28.3504C21.1301 27.9104 21.7401 27.5504 21.5401 27.1104C21.2601 26.4804 19.6901 26.8804 19.8801 26.1304C20.0101 25.6004 21.1201 25.7504 21.5301 25.8804C21.8601 25.9804 22.4401 26.5504 22.6801 26.0704C23.0701 25.3004 21.5001 24.9804 21.0101 24.8304L21.6501 23.9804C22.1301 23.9604 23.3401 24.8604 23.6401 24.2504C23.9301 23.6804 22.3801 23.1704 21.9701 23.1004L21.7701 22.0604C22.9101 21.8504 24.3601 22.9004 24.5301 24.0204C24.8601 26.1904 23.2801 28.2004 21.1001 28.3604L21.1101 28.3504Z" fill="white"/>
<path d="M21.1101 32.7404L16.3001 30.8404C15.9301 30.5504 16.9201 30.1204 17.3301 30.1704C17.7401 30.2204 20.4101 31.2804 20.7201 31.5604C21.1501 31.9304 21.1501 32.1804 21.1101 32.7504V32.7404Z" fill="white"/>
<path d="M11.7101 17.1804C12.5801 17.7904 13.6901 17.9004 14.7201 17.9804C15.0801 19.6204 13.8401 19.5604 12.7401 18.9104C12.2301 18.6104 11.2201 17.8104 11.7101 17.1704V17.1804Z" fill="white"/>
<path d="M20.2301 22.0704C20.9001 21.9004 21.1401 22.8704 20.9701 23.3904C20.8701 23.7104 20.1601 24.4704 19.8101 24.5304C18.3201 24.7504 19.5101 22.2504 20.2201 22.0704H20.2301Z" fill="white"/>
<path d="M29.2001 17.3804L34.4401 17.3604C34.7101 17.3604 34.8701 17.5204 34.8701 17.7904C34.7401 19.4804 35.0301 21.3904 34.8701 23.0504C34.8501 23.2104 34.8701 23.3704 34.7301 23.4804C34.3701 23.7704 30.2401 23.4404 29.4601 23.5704C29.1701 23.5704 28.9401 23.3304 28.9301 23.0404C29.0501 21.4004 28.7901 19.5804 28.9301 17.9704C28.9501 17.7704 28.9601 17.4404 29.1901 17.3704L29.2001 17.3804ZM31.4301 18.2304H29.9001V19.9504H31.4301V18.2304ZM33.9101 18.2304H32.3801V19.9504H33.9101V18.2304ZM31.5201 20.9004H29.9001V22.6204H31.3801C31.6001 22.5004 31.4101 22.3604 31.4301 22.1904C31.4701 21.7604 31.5901 21.3504 31.5201 20.9004ZM33.9101 20.9004H32.3801V22.6204H33.9101V20.9004Z" fill="#222222"/>
<path d="M14.6901 12.9104C14.7901 13.0004 14.8601 13.2504 15.0101 13.4004C15.4501 13.8204 16.1401 14.1504 16.7601 14.1304C17.1001 14.1204 18.0201 13.7404 18.0801 13.7604C18.6801 13.9104 18.5101 14.6104 17.8601 14.8504C16.7001 15.2704 15.2701 15.0004 14.3801 14.1404C13.4901 13.2804 14.0601 12.3904 14.6901 12.9304V12.9104Z" fill="#222222"/>
<path d="M14.7801 8.33043C15.3401 8.89043 15.3701 10.9204 14.4701 11.0704C12.7801 11.3504 13.3401 6.92043 14.7801 8.33043Z" fill="#222222"/>
<path d="M18.8901 7.65037C20.1001 7.40037 20.3101 10.5204 19.0601 10.4904C18.1201 10.4704 17.8801 7.86037 18.8901 7.65037Z" fill="#222222"/>
<path d="M17.1301 12.1404C17.3401 11.8904 18.4101 12.2204 18.3501 11.6004C18.2801 10.9004 16.9001 11.6604 16.9001 10.8304C16.9001 10.0604 18.7101 10.3604 19.0801 11.1404C19.4501 11.9204 18.8101 12.7704 18.0001 12.8804C17.4201 12.9604 16.8301 12.8304 17.1201 12.1504L17.1301 12.1404Z" fill="#222222"/>
<path d="M7.80011 11.3605C8.36011 11.1805 9.41011 12.6105 8.79011 12.9305C8.39011 13.1405 7.26011 11.5305 7.80011 11.3605Z" fill="#222222"/>
<path d="M31.5201 20.9004C31.5901 21.3504 31.4601 21.7704 31.4301 22.1904C31.4101 22.3504 31.6001 22.4904 31.3801 22.6204H29.9001V20.9004H31.5201Z" fill="white"/>
<path d="M33.9101 20.9004H32.3801V22.6204H33.9101V20.9004Z" fill="white"/>
<path d="M33.9101 18.2303H32.3801V19.9503H33.9101V18.2303Z" fill="white"/>
<path d="M31.4301 18.2303H29.9001V19.9503H31.4301V18.2303Z" fill="white"/>
<path d="M16.8301 26.8704L17.4901 29.1204C15.4601 29.0804 14.6701 31.4004 13.3401 32.6604C12.9001 33.0804 10.6001 34.5204 10.5401 34.7304C10.4501 35.0204 10.5701 35.2104 10.7801 35.4104C10.9301 35.5604 11.2301 35.7604 11.5901 35.9704C9.78011 36.5004 7.61011 36.1804 7.61011 36.1804L8.52011 33.1304C9.15011 33.4304 10.1001 33.3004 10.4501 32.6204C10.5601 32.4104 10.5901 31.9904 10.6401 31.9104C10.6801 31.8504 11.0001 31.7704 11.1301 31.6804C12.9101 30.3804 11.1601 27.3204 9.38011 26.9204C10.7501 24.1104 11.2801 20.9104 9.76011 18.0404C10.2101 18.0804 10.3901 17.7704 10.7601 18.1404C10.9901 18.3804 11.3301 19.0304 11.4601 19.3504C11.7301 20.0104 11.8601 21.2704 12.1301 21.7404C12.2001 21.8604 12.3601 22.0304 12.4901 22.0504H16.6901C16.9801 21.7004 16.7801 20.9704 16.6901 20.5204C16.5101 19.6404 16.1201 18.8604 15.7801 18.0404C16.8201 17.7504 17.2101 18.8204 17.5001 19.6104C18.3201 21.8704 17.7401 24.7004 16.8401 26.8604L16.8301 26.8704Z" fill="white"/>
</svg>
