<svg width="24" height="25" viewBox="0 0 24 25" fill="none" xmlns="http://www.w3.org/2000/svg">
<path d="M12 15.5C13.6569 15.5 15 14.1569 15 12.5C15 10.8431 13.6569 9.5 12 9.5C10.3431 9.5 9 10.8431 9 12.5C9 14.1569 10.3431 15.5 12 15.5Z" fill="#727272"/>
<path d="M23.205 12.245C22.3229 9.96324 20.7915 7.98996 18.8001 6.56906C16.8087 5.14817 14.4446 4.34193 12 4.25C9.55537 4.34193 7.19128 5.14817 5.19989 6.56906C3.2085 7.98996 1.67711 9.96324 0.794986 12.245C0.735412 12.4098 0.735412 12.5902 0.794986 12.755C1.67711 15.0368 3.2085 17.01 5.19989 18.4309C7.19128 19.8518 9.55537 20.6581 12 20.75C14.4446 20.6581 16.8087 19.8518 18.8001 18.4309C20.7915 17.01 22.3229 15.0368 23.205 12.755C23.2646 12.5902 23.2646 12.4098 23.205 12.245ZM12 17.375C11.0358 17.375 10.0933 17.0891 9.29158 16.5534C8.48989 16.0177 7.86505 15.2564 7.49607 14.3656C7.1271 13.4748 7.03056 12.4946 7.21866 11.5489C7.40676 10.6033 7.87106 9.73464 8.55284 9.05285C9.23462 8.37107 10.1033 7.90677 11.0489 7.71867C11.9946 7.53057 12.9748 7.62711 13.8656 7.99609C14.7564 8.36506 15.5177 8.98991 16.0534 9.7916C16.5891 10.5933 16.875 11.5358 16.875 12.5C16.873 13.7923 16.3588 15.0311 15.4449 15.945C14.5311 16.8588 13.2923 17.373 12 17.375Z" fill="#727272"/>
</svg>
